<svg xmlns="http://www.w3.org/2000/svg" viewBox="0 0 192.99 436"><defs><style>.cls-1{fill:#00bdcd;}</style></defs><title>navLogo_1</title><g id="Layer_2" data-name="Layer 2"><g id="Layer_1-2" data-name="Layer 1"><circle class="cls-1" cx="95.59" cy="301.06" r="9.9"/><circle class="cls-1" cx="156.49" cy="270.45" r="9.9"/><circle class="cls-1" cx="34.68" cy="270.45" r="9.9"/><path class="cls-1" d="M96.49,259.12C43.29,259.12,0,217.21,0,165.68c0-28,12.82-54.32,35.18-72.16A5.44,5.44,0,0,1,42,102c-19.76,15.76-31.09,39-31.09,63.66,0,45.53,38.41,82.58,85.62,82.58s85.63-37,85.63-82.58a82,82,0,0,0-.47-8.75,79.74,79.74,0,0,0-7-25.05,82.25,82.25,0,0,0-14.32-21.24c-1.66-1.8-3.44-3.56-5.29-5.22a87.15,87.15,0,0,0-13.62-10.07c-10.85-6.49-23-10.32-37.17-11.71l-.85-.08c-12.57-1.23-26.82-2.62-37.12-13.43a41.51,41.51,0,1,1,70.86-21,5.43,5.43,0,1,1-10.68-2A30.64,30.64,0,1,0,74.14,62.63c7.51,7.89,18.58,9,30.3,10.12l.86.08c15.58,1.53,29.6,6,41.68,13.19a97.2,97.2,0,0,1,15.33,11.34c2.08,1.87,4.09,3.86,6,5.89a93.33,93.33,0,0,1,16.2,24,90.71,90.71,0,0,1,8,28.46,93.66,93.66,0,0,1,.54,9.93C193,217.21,149.7,259.12,96.49,259.12Z"/><path class="cls-1" d="M176.14,166a4.08,4.08,0,0,0-1.44-3.11c-9.71-8.23-19.85-13.8-30.3-16.69,5.35-9.43,8.58-20.54,9.62-33.23a4.07,4.07,0,0,0-4.39-4.39c-13,1.07-24.38,4.44-34,10q-4.53-15.08-15.77-30.5a4.08,4.08,0,0,0-6.58,0c-7.69,10.53-13,21-16,31.29-9.39-5.17-20.56-8.8-33.44-10.81a4.08,4.08,0,0,0-4.65,4.66c2,12.88,5.63,24.05,10.81,33.44-10.3,3-20.77,8.31-31.29,16a4.06,4.06,0,0,0,0,6.58c10.52,7.69,21,13,31.28,16-5.17,9.39-8.8,20.55-10.8,33.43a4.06,4.06,0,0,0,4,4.7,3.35,3.35,0,0,0,.63,0q18.83-2.93,32.71-10.41c2.82,10.74,8.47,21.17,16.91,31.13a4.08,4.08,0,0,0,6.22,0c8.23-9.71,13.8-19.86,16.69-30.31,9.43,5.35,20.55,8.58,33.23,9.63H150A4.07,4.07,0,0,0,154,219c-1-12.68-4.27-23.79-9.62-33.22,10.45-2.89,20.59-8.47,30.3-16.69A4.09,4.09,0,0,0,176.14,166Zm-30.78-48.76a67.11,67.11,0,0,1-9.48,27.22,61.59,61.59,0,0,0-17.47.09c.13-1.39.24-2.78.28-4.18a65.58,65.58,0,0,0-1-13.34Q129.35,119.39,145.36,117.19ZM117,153a58.28,58.28,0,0,1,13-.91,58.34,58.34,0,0,1-10.51,9c-1.35-.77-2.74-1.49-4.17-2.19Q116.29,156,117,153Zm-7.06-6.82c-1.69.45-3.38,1-5.07,1.56q-1.38-2.79-3-5.38a58.7,58.7,0,0,1,8.3-9.6A56.23,56.23,0,0,1,109.94,146.21Zm-6,26.35a9.9,9.9,0,1,1-.76-14A9.9,9.9,0,0,1,104,172.56ZM96.6,97.62a86,86,0,0,1,11.93,25.79c-1.53,1.19-3,2.45-4.4,3.78a64.7,64.7,0,0,0-7.28,8.17c-.88-1.08-1.79-2.13-2.75-3.15a65.68,65.68,0,0,0-9.54-8.3A85.7,85.7,0,0,1,96.6,97.62Zm-19,60.46q-2.6,1.33-5,2.86a56.37,56.37,0,0,1-8.87-8.61,55.47,55.47,0,0,1,12.36.18C76.5,154.38,77,156.23,77.61,158.08ZM48.29,117.63a85.49,85.49,0,0,1,27.1,10.08,64.84,64.84,0,0,0-.87,12.61c0,1.26.12,2.52.23,3.78-1.25-.11-2.51-.2-3.78-.24a65.71,65.71,0,0,0-12.61.88A85.55,85.55,0,0,1,48.29,117.63ZM28.27,166a85.45,85.45,0,0,1,26.3-12,65.09,65.09,0,0,0,8.29,9.54c.92.87,1.88,1.7,2.85,2.51-1,.81-1.93,1.64-2.85,2.5A65.62,65.62,0,0,0,54.57,178,85.64,85.64,0,0,1,28.27,166Zm46.25,32.73c0,1.93.2,3.86.43,5.78a86,86,0,0,1-26.66,9.8,85.46,85.46,0,0,1,10.08-27.12,65.63,65.63,0,0,0,10.77.92q.92,0,1.83,0c1.4,0,2.79-.14,4.18-.27A64.85,64.85,0,0,0,74.52,198.68Zm2.34-19.4a56,56,0,0,1-13.14.29A55.93,55.93,0,0,1,72.59,171a65.93,65.93,0,0,0,5.83,3.25C77.84,175.91,77.31,177.6,76.86,179.28ZM83,133.06a56.28,56.28,0,0,1,9.09,9.5c-.87,1.51-1.69,3.08-2.48,4.69a64.91,64.91,0,0,0-6.43-1.82A56.78,56.78,0,0,1,83,133.06Zm.7,53.28c2-.46,3.95-1,5.91-1.69.79,1.61,1.61,3.18,2.48,4.68a55.94,55.94,0,0,1-9.3,9.67A57.89,57.89,0,0,1,83.68,186.34ZM96.6,234.91Q86.84,222,84,208.41a66.21,66.21,0,0,0,10.15-8.72c1-1,1.87-2.08,2.75-3.15a65.41,65.41,0,0,0,7.28,8.17,61.78,61.78,0,0,0,5,4.24A67.28,67.28,0,0,1,96.6,234.91Zm13.83-35.58a58.13,58.13,0,0,1-8.54-9.82q1.6-2.59,3-5.37c1.5.51,3,1,4.49,1.39A58.31,58.31,0,0,1,110.43,199.33Zm5.75-20.62q-.74-2.67-1.68-5.35c1.71-.82,3.36-1.68,5-2.59a58.29,58.29,0,0,1,10.51,9A57.78,57.78,0,0,1,116.18,178.71Zm29.18,36a67.16,67.16,0,0,1-27.22-9.48,62,62,0,0,0-.14-17.88,64.91,64.91,0,0,0,9.49.71c.62,0,1.23,0,1.84,0a62.19,62.19,0,0,0,6.55-.54A67.06,67.06,0,0,1,145.36,214.71Zm-5.75-36.22a63.34,63.34,0,0,0-4.25-5,65.35,65.35,0,0,0-8.51-7.52,64.69,64.69,0,0,0,8.51-7.53,59.94,59.94,0,0,0,4.25-5A67.31,67.31,0,0,1,165.56,166Q152.95,175.52,139.61,178.49Z"/><path class="cls-1" d="M38.18,309a4.13,4.13,0,0,0-6.68,0c-25.39,34.76-25.33,69.05.18,99.14a4.15,4.15,0,0,0,6.32,0C63.51,378.05,63.57,343.76,38.18,309Z"/><path class="cls-1" d="M99.1,335.39a4.14,4.14,0,0,0-6.69,0c-25.39,34.77-25.32,69.05.19,99.15a4.14,4.14,0,0,0,6.31,0C124.42,404.44,124.48,370.16,99.1,335.39Z"/><path class="cls-1" d="M160,304.93a4.16,4.16,0,0,0-6.69,0c-25.38,34.77-25.32,69.06.19,99.15a4.15,4.15,0,0,0,6.32,0C185.33,374,185.4,339.7,160,304.93Z"/></g></g></svg>